<svg width="20" height="20" viewBox="0 0 20 20" fill="none" xmlns="http://www.w3.org/2000/svg">
<path fill-rule="evenodd" clip-rule="evenodd" d="M10.0156 0.390625L9.32916 1.75129C9.17612 2.05465 9.24033 2.42249 9.48711 2.65605C9.78359 2.93664 10.2477 2.93664 10.5441 2.65605C10.7909 2.42249 10.8551 2.05465 10.7021 1.75129L10.0156 0.390625ZM8.59375 4.5C8.59375 3.94772 9.04147 3.5 9.59375 3.5H10.5625C11.1148 3.5 11.5625 3.94772 11.5625 4.5V8.4375H12.25V5.4375C12.25 4.88522 12.6977 4.4375 13.25 4.4375H14.2188C14.771 4.4375 15.2188 4.88522 15.2188 5.4375V8.448C16.3587 8.55798 17.25 9.51866 17.25 10.6875V13.2248C17.25 13.9706 16.7166 14.5005 16.0938 14.6227V17C16.0938 18.2426 15.0864 19.25 13.8438 19.25H6.40625C5.16361 19.25 4.15625 18.2426 4.15625 17V14.5926C3.44696 14.3923 2.875 13.7527 2.875 12.9056V10.6875C2.875 9.508 3.7826 8.54047 4.93752 8.4452V5.4375C4.93752 4.88522 5.38523 4.4375 5.93752 4.4375H6.90627C7.45855 4.4375 7.90627 4.88522 7.90627 5.4375V8.4375H8.59375V4.5ZM6.90627 8.4375H5.93752V5.4375H6.90627V8.4375ZM14.2188 8.4375V5.4375H13.25V8.4375H14.2188ZM10.5625 4.5V8.4375H9.59375V4.5H10.5625ZM4.375 10.6875C4.375 10.2733 4.71079 9.9375 5.125 9.9375H15C15.4142 9.9375 15.75 10.2733 15.75 10.6875V13.058C15.1765 12.6343 14.3631 12.6991 13.8652 13.2344L13.6836 13.4296C13.6157 13.5026 13.5025 13.5094 13.4263 13.4452L13.1657 13.2255C12.5091 12.6719 11.5478 12.6766 10.8966 13.2366L10.6452 13.4528C10.55 13.5346 10.4089 13.5332 10.3154 13.4494L10.1296 13.283C9.47007 12.6922 8.47316 12.6871 7.80763 13.2711L7.6024 13.4512C7.50805 13.534 7.36695 13.534 7.2726 13.4512L6.97914 13.1937C6.38262 12.6702 5.5085 12.6137 4.84954 13.056L4.76433 13.1132C4.59825 13.2247 4.375 13.1057 4.375 12.9056V10.6875ZM14.5938 14.6252C13.975 15.116 13.0808 15.1159 12.4594 14.592L12.1988 14.3723C12.105 14.2932 11.9677 14.2939 11.8747 14.3739L11.6233 14.5901C10.957 15.1631 9.96908 15.1531 9.31453 14.5667L9.12872 14.4002C9.0345 14.3158 8.89209 14.3151 8.79701 14.3985L8.59178 14.5786C7.93138 15.1582 6.94362 15.1582 6.28322 14.5786L5.98975 14.3211C5.90454 14.2463 5.77966 14.2383 5.68553 14.3014L5.65625 14.3211V17C5.65625 17.4142 5.99204 17.75 6.40625 17.75H13.8438C14.258 17.75 14.5938 17.4142 14.5938 17V14.6252ZM12.9854 2.59504L13.6719 1.23438L14.3583 2.59504C14.5114 2.8984 14.4472 3.26624 14.2004 3.4998C13.9039 3.78039 13.4398 3.78039 13.1434 3.4998C12.8966 3.26624 12.8324 2.8984 12.9854 2.59504ZM6.35939 1.23438L5.67293 2.59504C5.51988 2.8984 5.5841 3.26624 5.83087 3.4998C6.12735 3.78039 6.59142 3.78039 6.8879 3.4998C7.13468 3.26624 7.1989 2.8984 7.04585 2.59504L6.35939 1.23438Z" fill="black"/>
</svg>
