<svg width="20" height="21" viewBox="0 0 20 21" fill="none" xmlns="http://www.w3.org/2000/svg">
<path fill-rule="evenodd" clip-rule="evenodd" d="M7.18424 1.22241C7.64447 1.22241 8.01757 1.59551 8.01757 2.05575V2.59001H11.9368V2.05575C11.9368 1.59551 12.3099 1.22241 12.7702 1.22241C13.2304 1.22241 13.6035 1.59551 13.6035 2.05575V2.59001H15C16.8409 2.59001 18.3333 4.08239 18.3333 5.92334V15.9233C18.3333 17.7643 16.8409 19.2567 15 19.2567H4.99999C3.15904 19.2567 1.66666 17.7643 1.66666 15.9233V5.92334C1.66666 4.08239 3.15904 2.59001 4.99999 2.59001H6.3509V2.05575C6.3509 1.59551 6.724 1.22241 7.18424 1.22241ZM11.9368 4.25667V4.7771C11.9368 5.23734 12.3099 5.61043 12.7702 5.61043C13.2304 5.61043 13.6035 5.23734 13.6035 4.7771V4.25667H15C15.9205 4.25667 16.6667 5.00287 16.6667 5.92334V7.01709H3.33332V5.92334C3.33332 5.00287 4.07952 4.25667 4.99999 4.25667H6.3509V4.7771C6.3509 5.23734 6.724 5.61043 7.18424 5.61043C7.64447 5.61043 8.01757 5.23734 8.01757 4.7771V4.25667H11.9368ZM3.33332 11.34V13.814H7.32746V11.34L3.33332 11.34ZM3.33332 10.5067H7.32746V8.68376H3.33332V10.5067ZM8.1608 11.34V13.814L11.8587 13.814V11.34H8.1608ZM11.8587 10.5067L8.1608 10.5067V8.68376H11.8587V10.5067ZM12.692 11.34V13.814H16.6667V11.34L12.692 11.34ZM16.6667 10.5067H12.692V8.68376H16.6667V10.5067ZM3.33332 15.9233V14.6473L7.32746 14.6473V17.59H4.99999C4.07952 17.59 3.33332 16.8438 3.33332 15.9233ZM8.1608 17.59V14.6473H11.8587V17.59H8.1608ZM12.692 17.59V14.6473L16.6667 14.6473V15.9233C16.6667 16.8438 15.9205 17.59 15 17.59H12.692Z" fill="black"/>
</svg>
