<svg width="20" height="20" viewBox="0 0 20 20" fill="none" xmlns="http://www.w3.org/2000/svg">
<path fill-rule="evenodd" clip-rule="evenodd" d="M7.18424 0.299072C7.64447 0.299072 8.01757 0.672168 8.01757 1.13241V1.66667H11.9368V1.13241C11.9368 0.672168 12.3099 0.299072 12.7702 0.299072C13.2304 0.299072 13.6035 0.672168 13.6035 1.13241V1.66667H15C16.8409 1.66667 18.3333 3.15905 18.3333 5V15C18.3333 16.841 16.8409 18.3333 15 18.3333H4.99999C3.15904 18.3333 1.66666 16.841 1.66666 15V5C1.66666 3.15905 3.15904 1.66667 4.99999 1.66667H6.3509V1.13241C6.3509 0.672168 6.724 0.299072 7.18424 0.299072ZM11.9368 3.33333V3.85376C11.9368 4.314 12.3099 4.68709 12.7702 4.68709C13.2304 4.68709 13.6035 4.314 13.6035 3.85376V3.33333H15C15.9205 3.33333 16.6667 4.07953 16.6667 5V6.09375H3.33332V5C3.33332 4.07953 4.07952 3.33333 4.99999 3.33333H6.3509V3.85376C6.3509 4.314 6.724 4.68709 7.18424 4.68709C7.64447 4.68709 8.01757 4.314 8.01757 3.85376V3.33333H11.9368ZM3.33332 10.4167V12.8906H7.32746V10.4167L3.33332 10.4167ZM3.33332 9.58333H7.32746V7.76042H3.33332V9.58333ZM8.1608 10.4167V12.8906L11.8587 12.8906V10.4167H8.1608ZM11.8587 9.58333L8.1608 9.58333V7.76042H11.8587V9.58333ZM12.692 10.4167V12.8906H16.6667V10.4167L12.692 10.4167ZM16.6667 9.58333H12.692V7.76042H16.6667V9.58333ZM3.33332 15V13.724L7.32746 13.724V16.6667H4.99999C4.07952 16.6667 3.33332 15.9205 3.33332 15ZM8.1608 16.6667V13.724H11.8587V16.6667H8.1608ZM12.692 16.6667V13.724L16.6667 13.724V15C16.6667 15.9205 15.9205 16.6667 15 16.6667H12.692Z" fill="white"/>
</svg>
