<svg width="20" height="21" viewBox="0 0 20 21" fill="none" xmlns="http://www.w3.org/2000/svg">
<g clip-path="url(#clip0_201_15113)">
<path fill-rule="evenodd" clip-rule="evenodd" d="M7.18424 0.453125C7.64447 0.453125 8.01757 0.826221 8.01757 1.28646V1.82072H11.9368V1.28646C11.9368 0.826221 12.3099 0.453125 12.7702 0.453125C13.2304 0.453125 13.6035 0.826221 13.6035 1.28646V1.82072H15C16.8409 1.82072 18.3333 3.3131 18.3333 5.15405V10.097C19.3608 11.0861 20 12.4757 20 14.0145C20 17.0176 17.5655 19.452 14.5625 19.452C13.4135 19.452 12.3477 19.0956 11.4697 18.4874H4.99999C3.15904 18.4874 1.66666 16.995 1.66666 15.1541V5.15405C1.66666 3.3131 3.15904 1.82072 4.99999 1.82072H6.3509V1.28646C6.3509 0.826221 6.724 0.453125 7.18424 0.453125ZM16.6667 7.91447V8.99912C16.0194 8.72726 15.3085 8.57703 14.5625 8.57703C13.9053 8.57703 13.2753 8.69363 12.692 8.90729V7.91447H16.6667ZM11.8587 7.91447V9.29584C11.6297 9.42735 11.4112 9.57505 11.2047 9.73738L8.1608 9.73739V7.91447H11.8587ZM8.1608 10.5707H10.3544C9.78066 11.2709 9.37828 12.1169 9.21124 13.0447H8.1608V10.5707ZM8.1608 13.878H9.12668C9.12556 13.9234 9.125 13.9689 9.125 14.0145C9.125 15.0412 9.40956 16.0015 9.90412 16.8207H8.1608V13.878ZM11.9368 3.48739V4.00781C11.9368 4.46805 12.3099 4.84115 12.7702 4.84115C13.2304 4.84115 13.6035 4.46805 13.6035 4.00781V3.48739H15C15.9205 3.48739 16.6667 4.23358 16.6667 5.15405V6.2478H3.33332V5.15405C3.33332 4.23358 4.07952 3.48739 4.99999 3.48739H6.3509V4.00781C6.3509 4.46805 6.724 4.84115 7.18424 4.84115C7.64447 4.84115 8.01757 4.46805 8.01757 4.00781V3.48739H11.9368ZM3.33332 10.5707V13.0447H7.32746V10.5707L3.33332 10.5707ZM3.33332 9.73739H7.32746V7.91447H3.33332V9.73739ZM3.33332 15.1541V13.878L7.32746 13.878V16.8207H4.99999C4.07952 16.8207 3.33332 16.0745 3.33332 15.1541ZM17.6241 13.27C17.917 12.9771 17.917 12.5022 17.6241 12.2093C17.3312 11.9164 16.8563 11.9164 16.5634 12.2093L13.8084 14.9643L12.5616 13.7175C12.2687 13.4246 11.7938 13.4246 11.5009 13.7175C11.208 14.0104 11.208 14.4853 11.5009 14.7782L13.2781 16.5553C13.4187 16.696 13.6095 16.775 13.8084 16.775C14.0073 16.775 14.1985 16.6956 14.3391 16.5549L17.6241 13.27Z" fill="white"/>
</g>
<defs>
<clipPath id="clip0_201_15113">
<rect width="20" height="20" fill="white" transform="translate(0 0.154053)"/>
</clipPath>
</defs>
</svg>
