<svg width="20" height="21" viewBox="0 0 20 21" fill="none" xmlns="http://www.w3.org/2000/svg">
<g clip-path="url(#clip0_201_15087)">
<path fill-rule="evenodd" clip-rule="evenodd" d="M7.18424 0.376099C7.64447 0.376099 8.01757 0.749195 8.01757 1.20943V1.74369H11.9368V1.20943C11.9368 0.749195 12.3099 0.376099 12.7702 0.376099C13.2304 0.376099 13.6035 0.749195 13.6035 1.20943V1.74369H15C16.8409 1.74369 18.3333 3.23608 18.3333 5.07703V10.0199C19.3608 11.0091 20 12.3987 20 13.9375C20 16.9405 17.5655 19.375 14.5625 19.375C13.4135 19.375 12.3477 19.0186 11.4697 18.4104H4.99999C3.15904 18.4104 1.66666 16.918 1.66666 15.077V5.07703C1.66666 3.23608 3.15904 1.74369 4.99999 1.74369H6.3509V1.20943C6.3509 0.749195 6.724 0.376099 7.18424 0.376099ZM16.6667 7.83744V8.9221C16.0194 8.65023 15.3085 8.5 14.5625 8.5C13.9053 8.5 13.2753 8.61661 12.692 8.83026V7.83744H16.6667ZM11.8587 7.83744V9.21882C11.6297 9.35033 11.4112 9.49803 11.2047 9.66036L8.1608 9.66036V7.83744H11.8587ZM8.1608 10.4937H10.3544C9.78066 11.1939 9.37828 12.0399 9.21124 12.9677H8.1608V10.4937ZM8.1608 13.801H9.12668C9.12556 13.8464 9.125 13.8919 9.125 13.9375C9.125 14.9642 9.40956 15.9245 9.90412 16.7437H8.1608V13.801ZM11.9368 3.41036V3.93079C11.9368 4.39102 12.3099 4.76412 12.7702 4.76412C13.2304 4.76412 13.6035 4.39102 13.6035 3.93079V3.41036H15C15.9205 3.41036 16.6667 4.15655 16.6667 5.07703V6.17078H3.33332V5.07703C3.33332 4.15655 4.07952 3.41036 4.99999 3.41036H6.3509V3.93079C6.3509 4.39102 6.724 4.76412 7.18424 4.76412C7.64447 4.76412 8.01757 4.39102 8.01757 3.93079V3.41036H11.9368ZM3.33332 10.4937V12.9677H7.32746V10.4937L3.33332 10.4937ZM3.33332 9.66036H7.32746V7.83744H3.33332V9.66036ZM3.33332 15.077V13.801L7.32746 13.801V16.7437H4.99999C4.07952 16.7437 3.33332 15.9975 3.33332 15.077ZM17.6241 13.1929C17.917 12.9 17.917 12.4252 17.6241 12.1323C17.3312 11.8394 16.8563 11.8394 16.5634 12.1323L13.8084 14.8873L12.5616 13.6405C12.2687 13.3476 11.7938 13.3476 11.5009 13.6405C11.208 13.9334 11.208 14.4083 11.5009 14.7012L13.2781 16.4783C13.4187 16.6189 13.6095 16.698 13.8084 16.698C14.0073 16.698 14.1985 16.6186 14.3391 16.4779L17.6241 13.1929Z" fill="black"/>
</g>
<defs>
<clipPath id="clip0_201_15087">
<rect width="20" height="20" fill="white" transform="translate(0 0.0770264)"/>
</clipPath>
</defs>
</svg>
