<svg width="20" height="20" viewBox="0 0 20 20" fill="none" xmlns="http://www.w3.org/2000/svg">
<path fill-rule="evenodd" clip-rule="evenodd" d="M10 16.4375C13.5553 16.4375 16.4375 13.5553 16.4375 10C16.4375 6.44467 13.5553 3.5625 10 3.5625C6.44467 3.5625 3.5625 6.44467 3.5625 10C3.5625 13.5553 6.44467 16.4375 10 16.4375ZM10 17.9375C14.3838 17.9375 17.9375 14.3838 17.9375 10C17.9375 5.61624 14.3838 2.0625 10 2.0625C5.61624 2.0625 2.0625 5.61624 2.0625 10C2.0625 14.3838 5.61624 17.9375 10 17.9375Z" fill="black"/>
<path fill-rule="evenodd" clip-rule="evenodd" d="M10.0938 4C10.508 4 10.8438 4.33579 10.8438 4.75V10.2206L12.9835 12.3603C13.2763 12.6532 13.2763 13.1281 12.9835 13.421C12.6906 13.7138 12.2157 13.7138 11.9228 13.421L9.34375 10.8419V4.75C9.34375 4.33579 9.67954 4 10.0938 4Z" fill="black"/>
</svg>
