<svg width="20" height="20" viewBox="0 0 20 20" fill="none" xmlns="http://www.w3.org/2000/svg">
<path fill-rule="evenodd" clip-rule="evenodd" d="M3.91174 2.48432C3.52339 2.09164 2.89023 2.08813 2.49755 2.47649C2.10487 2.86484 2.10136 3.498 2.48972 3.89068L8.5858 10.0547L2.42182 16.1507C2.02914 16.5391 2.02563 17.1723 2.41399 17.5649C2.80234 17.9576 3.4355 17.9611 3.82818 17.5728L9.99216 11.4767L16.0883 17.6407C16.4766 18.0334 17.1098 18.0369 17.5024 17.6485C17.8951 17.2602 17.8986 16.627 17.5103 16.2343L11.4142 10.0703L17.5782 3.97423C17.9709 3.58587 17.9744 2.95272 17.586 2.56004C17.1977 2.16736 16.5645 2.16385 16.1718 2.55221L10.0078 8.6483L3.91174 2.48432Z" fill="black"/>
</svg>
