<svg width="32" height="32" viewBox="0 0 32 32" fill="none" xmlns="http://www.w3.org/2000/svg">
<g clip-path="url(#clip0_2852_1580)">
<path d="M23.2545 17.3336L21.8311 20.1291C21.6907 20.4047 21.3363 20.4881 21.0878 20.304L18.8867 18.673L16.6306 21.1534C16.4448 21.3577 16.1286 21.3726 15.9243 21.1868C15.72 21.001 15.7051 20.6848 15.8909 20.4805L18.4512 17.6656C18.6239 17.4757 18.9124 17.4475 19.1187 17.6003L21.2082 19.1485L22.4109 16.7866L21.1294 17.13C20.8627 17.2015 20.5885 17.0432 20.517 16.7765C20.4456 16.5097 20.6039 16.2356 20.8706 16.1641L23.2854 15.517C23.5521 15.4456 23.8263 15.6039 23.8978 15.8706L24.5448 18.2854C24.6163 18.5521 24.458 18.8263 24.1913 18.8978C23.9245 18.9692 23.6504 18.811 23.5789 18.5442L23.2545 17.3336ZM5.75 12H26.25V9.98438C26.25 9.29402 25.6904 8.73438 25 8.73438H7C6.30964 8.73438 5.75 9.29402 5.75 9.98438V12ZM5.75 13.5V22.4844C5.75 23.1747 6.30964 23.7344 7 23.7344H25C25.6904 23.7344 26.25 23.1747 26.25 22.4844V13.5H5.75ZM7 7.23438H25C26.5188 7.23438 27.75 8.46559 27.75 9.98438V22.4844C27.75 24.0032 26.5188 25.2344 25 25.2344H7C5.48122 25.2344 4.25 24.0032 4.25 22.4844V9.98438C4.25 8.46559 5.48122 7.23438 7 7.23438ZM10.4773 16.5C10.4773 16.2239 10.7011 16 10.9773 16C11.2534 16 11.4773 16.2239 11.4773 16.5V20.7955C11.4773 21.0716 11.2534 21.2955 10.9773 21.2955C10.7011 21.2955 10.4773 21.0716 10.4773 20.7955V16.5ZM7.97727 18.6477C7.97727 18.3716 8.20113 18.1477 8.47727 18.1477C8.75342 18.1477 8.97727 18.3716 8.97727 18.6477V20.7955C8.97727 21.0716 8.75342 21.2955 8.47727 21.2955C8.20113 21.2955 7.97727 21.0716 7.97727 20.7955V18.6477ZM12.9773 17.4436C12.9773 17.1675 13.2011 16.9436 13.4773 16.9436C13.7534 16.9436 13.9773 17.1675 13.9773 17.4436V20.7955C13.9773 21.0716 13.7534 21.2955 13.4773 21.2955C13.2011 21.2955 12.9773 21.0716 12.9773 20.7955V17.4436Z" fill="black"/>
</g>
<defs>
<clipPath id="clip0_2852_1580">
<rect width="32" height="32" fill="white"/>
</clipPath>
</defs>
</svg>
