<svg width="20" height="20" viewBox="0 0 20 20" fill="none" xmlns="http://www.w3.org/2000/svg">
<path fill-rule="evenodd" clip-rule="evenodd" d="M7.61175 15.3283C7.25118 15.3914 6.92213 15.4674 6.63051 15.5531C6.11949 15.7033 5.75721 15.8734 5.53973 16.0299C5.46048 16.087 5.41481 16.131 5.38906 16.1606C5.41014 16.1847 5.44437 16.2183 5.49897 16.2609C5.67757 16.4002 5.98275 16.5583 6.42684 16.7048C7.30699 16.9952 8.57036 17.1875 9.99999 17.1875C11.4296 17.1875 12.693 16.9952 13.5732 16.7048C14.0172 16.5583 14.3224 16.4002 14.501 16.2609C14.5554 16.2185 14.5896 16.185 14.6107 16.1609C14.571 16.1137 14.4795 16.0276 14.2749 15.9133C13.8983 15.7029 13.3095 15.5023 12.5456 15.357L13.5732 14.0526C14.1205 14.1984 14.6099 14.3822 15.0065 14.6038C15.5237 14.8928 16.1355 15.3938 16.1355 16.1607C16.1355 16.7377 15.7807 17.1651 15.4236 17.4437C15.0571 17.7295 14.5736 17.9543 14.0431 18.1293C12.9741 18.482 11.5447 18.6875 9.99999 18.6875C8.45529 18.6875 7.0259 18.482 5.95687 18.1293C5.42637 17.9543 4.94286 17.7295 4.57641 17.4437C4.21931 17.1651 3.86447 16.7377 3.86447 16.1607C3.86447 15.5406 4.27193 15.0944 4.66335 14.8126C5.07133 14.5189 5.61133 14.2892 6.20754 14.114C6.29886 14.0871 6.39233 14.0614 6.48779 14.0366L7.61175 15.3283Z" fill="black"/>
<path fill-rule="evenodd" clip-rule="evenodd" d="M11.5113 12.4281C12.7852 10.7995 13.8855 8.7728 13.8855 6.73274C13.8855 5.86201 13.473 4.8637 12.7202 4.07052C11.9761 3.2866 11.005 2.8125 9.99999 2.8125C7.84432 2.8125 6.11447 4.47361 6.11447 6.73274C6.11447 8.64792 7.2061 10.672 8.49626 12.3495C9.03621 13.0516 9.57855 13.6514 10.0203 14.1058C10.4546 13.6728 10.9841 13.1021 11.5113 12.4281ZM9.99999 16.1592C9.99999 16.1592 15.3855 11.8163 15.3855 6.73274C15.3855 4.10679 12.9743 1.3125 9.99999 1.3125C7.02565 1.3125 4.61447 3.63546 4.61447 6.73274C4.61447 11.5807 9.99999 16.1592 9.99999 16.1592Z" fill="black"/>
<path fill-rule="evenodd" clip-rule="evenodd" d="M9.99894 7.73246C10.4999 7.73246 10.9061 7.32633 10.9061 6.82534C10.9061 6.32435 10.4999 5.91821 9.99894 5.91821C9.49795 5.91821 9.09181 6.32435 9.09181 6.82534C9.09181 7.32633 9.49795 7.73246 9.99894 7.73246ZM9.99894 9.23246C11.3284 9.23246 12.4061 8.15476 12.4061 6.82534C12.4061 5.49592 11.3284 4.41821 9.99894 4.41821C8.66952 4.41821 7.59181 5.49592 7.59181 6.82534C7.59181 8.15476 8.66952 9.23246 9.99894 9.23246Z" fill="black"/>
</svg>
