<svg width="20" height="20" viewBox="0 0 20 20" fill="none" xmlns="http://www.w3.org/2000/svg">
<path fill-rule="evenodd" clip-rule="evenodd" d="M14.9832 3.30773C14.7386 3.07615 14.3518 3.08936 14.1236 3.33708L5.10034 13.1299C5.04395 13.1911 5.0008 13.2633 4.97362 13.342L3.88414 16.4949L6.93786 15.222C7.01674 15.1891 7.08775 15.1399 7.14619 15.0775L16.2653 5.34922C16.4927 5.10663 16.4813 4.72589 16.2398 4.4973L14.9832 3.30773ZM12.9239 2.23167C13.7685 1.31504 15.1996 1.26617 16.1047 2.12305L17.3613 3.31263C18.2548 4.15844 18.2968 5.56725 17.4554 6.46487L8.33637 16.1932C8.12012 16.4239 7.85739 16.6061 7.56553 16.7277L3.56359 18.3959C2.63077 18.7848 1.6767 17.8883 2.00676 16.9331L3.43176 12.8092C3.53234 12.5182 3.69197 12.251 3.90065 12.0245L12.9239 2.23167L13.5237 2.78438L12.9239 2.23167Z" fill="black"/>
</svg>
