<svg width="20" height="20" viewBox="0 0 20 20" fill="none" xmlns="http://www.w3.org/2000/svg">
<path fill-rule="evenodd" clip-rule="evenodd" d="M13.6043 8.89591C13.6043 11.4963 11.4963 13.6043 8.89591 13.6043C6.29553 13.6043 4.1875 11.4963 4.1875 8.89591C4.1875 6.29553 6.29553 4.1875 8.89591 4.1875C11.4963 4.1875 13.6043 6.29553 13.6043 8.89591ZM12.8797 14.2939C11.7656 15.1174 10.3876 15.6043 8.89591 15.6043C5.19096 15.6043 2.1875 12.6009 2.1875 8.89591C2.1875 5.19096 5.19096 2.1875 8.89591 2.1875C12.6009 2.1875 15.6043 5.19096 15.6043 8.89591C15.6043 10.3876 15.1174 11.7656 14.2939 12.8797L17.6446 16.2304C18.0351 16.6209 18.0351 17.2541 17.6446 17.6446C17.2541 18.0351 16.6209 18.0351 16.2304 17.6446L12.8797 14.2939Z" fill="black"/>
</svg>
