<svg width="42" height="42" viewBox="0 0 42 42" fill="none" xmlns="http://www.w3.org/2000/svg">
<path d="M21.6827 8.16176L24.7619 14.9291C25.2349 15.9688 26.2191 16.6838 27.3541 16.8124L34.7417 17.6497C35.3812 17.7222 35.6384 18.5136 35.1636 18.9482L29.679 23.9679C28.8364 24.739 28.4605 25.896 28.6889 27.0152L30.1755 34.3C30.3042 34.9306 29.6309 35.4197 29.0709 35.1025L22.6021 31.4375C21.6083 30.8744 20.3918 30.8744 19.398 31.4375L12.9291 35.1025C12.3691 35.4197 11.6959 34.9306 11.8246 34.3L13.3112 27.0152C13.5396 25.896 13.1637 24.739 12.3211 23.9679L6.83646 18.9482C6.36166 18.5136 6.61881 17.7222 7.25837 17.6497L14.646 16.8124C15.781 16.6838 16.7651 15.9688 17.2382 14.9291L20.3174 8.16175C20.5839 7.57591 21.4161 7.5759 21.6827 8.16176Z" stroke="black" stroke-width="2.5"/>
<path fill-rule="evenodd" clip-rule="evenodd" d="M21 9.67965L18.376 15.4468C17.7209 16.8863 16.3583 17.8764 14.7868 18.0545L8.49102 18.768L13.165 23.0457C14.3317 24.1135 14.8522 25.7154 14.536 27.2651L13.269 33.4732L18.7818 30.3499C20.1579 29.5702 21.8422 29.5702 23.2183 30.3499L28.731 33.4732L27.4641 27.2651C27.1479 25.7155 27.6683 24.1135 28.835 23.0457L33.509 18.768L27.2133 18.0545C25.6418 17.8764 24.2791 16.8863 23.6241 15.4468L21 9.67965ZM22.8204 7.64405C22.1096 6.08179 19.8904 6.08178 19.1796 7.64405L16.1004 14.4114C15.8093 15.0512 15.2037 15.4912 14.5052 15.5704L7.1176 16.4076C5.41213 16.6009 4.72637 18.7114 5.99252 19.8703L11.4771 24.8899C11.9957 25.3645 12.227 26.0765 12.0864 26.7652L10.5998 34.05C10.2566 35.7317 12.0519 37.0361 13.5453 36.19L20.0141 32.525C20.6257 32.1785 21.3743 32.1785 21.9859 32.525L28.4548 36.19C29.9481 37.0361 31.7435 35.7317 31.4003 34.05L29.9136 26.7652C29.7731 26.0765 30.0044 25.3645 30.5229 24.8899L36.0075 19.8703C37.2737 18.7114 36.5879 16.6009 34.8825 16.4076L27.4948 15.5704C26.7964 15.4912 26.1907 15.0512 25.8996 14.4114L22.8204 7.64405Z" fill="black"/>
</svg>
