<svg width="20" height="20" viewBox="0 0 20 20" fill="none" xmlns="http://www.w3.org/2000/svg">
<path fill-rule="evenodd" clip-rule="evenodd" d="M8.75 3.18738C8.75 3.04931 8.86193 2.93738 9 2.93738H11C11.1381 2.93738 11.25 3.04931 11.25 3.18738V4.43738H8.75V3.18738ZM7.25 4.43738V3.18738C7.25 2.22088 8.0335 1.43738 9 1.43738H11C11.9665 1.43738 12.75 2.22088 12.75 3.18738V4.43738H17C17.4142 4.43738 17.75 4.77316 17.75 5.18738C17.75 5.60159 17.4142 5.93738 17 5.93738H3C2.58579 5.93738 2.25 5.60159 2.25 5.18738C2.25 4.77316 2.58579 4.43738 3 4.43738H7.25ZM3.88413 6.44651C4.29336 6.38245 4.67703 6.66228 4.74109 7.07151L6.20707 16.4375H13.7931L15.2591 7.07151C15.3232 6.66228 15.7069 6.38245 16.1161 6.44651C16.5253 6.51056 16.8051 6.89423 16.7411 7.30346L15.1759 17.3035C15.1187 17.6685 14.8043 17.9375 14.4349 17.9375H5.56533C5.19589 17.9375 4.88148 17.6685 4.82435 17.3035L3.25913 7.30346C3.19508 6.89423 3.4749 6.51056 3.88413 6.44651ZM8.5 9.18738C8.5 8.91123 8.27614 8.68738 8 8.68738C7.72386 8.68738 7.5 8.91124 7.5 9.18738V12.1874C7.5 12.4635 7.72386 12.6874 8 12.6874C8.27614 12.6874 8.5 12.4635 8.5 12.1874V9.18738ZM12 8.68738C12.2761 8.68738 12.5 8.91123 12.5 9.18738V12.1874C12.5 12.4635 12.2761 12.6874 12 12.6874C11.7239 12.6874 11.5 12.4635 11.5 12.1874V9.18738C11.5 8.91124 11.7239 8.68738 12 8.68738Z" fill="white"/>
</svg>
